<svg xmlns="http://www.w3.org/2000/svg" version="1.1" xmlns:xlink="http://www.w3.org/1999/xlink" xmlns:svgjs="http://svgjs.dev/svgjs" width="1000" height="1000" viewBox="0 0 1000 1000"><rect width="1000" height="1000" fill="#000000"></rect><g transform="matrix(0.7,0,0,0.7,149.57575757575756,282.1265587044535)"><svg viewBox="0 0 396 247" data-background-color="#872d62" preserveAspectRatio="xMidYMid meet" height="623" width="1000" xmlns="http://www.w3.org/2000/svg" xmlns:xlink="http://www.w3.org/1999/xlink"><g id="tight-bounds" transform="matrix(1,0,0,1,0.2400000000000091,-0.09999999999999432)"><svg viewBox="0 0 395.52 247.2" height="247.2" width="395.52"><g><svg></svg></g><g><svg viewBox="0 0 395.52 247.2" height="247.2" width="395.52"><g transform="matrix(1,0,0,1,110.91269398663695,47.215199999999996)"><svg viewBox="0 0 173.69461202672608 152.7696" height="152.7696" width="173.69461202672608"><g><svg viewBox="0 0 173.69461202672608 152.7696" height="152.7696" width="173.69461202672608"><g><svg viewBox="0 0 173.69461202672608 152.7696" height="152.7696" width="173.69461202672608"><g><svg viewBox="0 0 173.69461202672608 152.7696" height="152.7696" width="173.69461202672608"><g><svg viewBox="0 0 173.69461202672608 152.7696" height="152.7696" width="173.69461202672608"><g><svg viewBox="0 0 173.69461202672608 152.7696" height="152.7696" width="173.69461202672608"><g transform="matrix(1,0,0,1,0,0)"><svg width="173.69461202672608" viewBox="-6.900000095367432 -34.5 51.05000305175781 44.900001525878906" height="152.7696" data-palette-color="#ffffff"><path d="M0.6 5L0.6 5Q2.4 5 3.15 4.08 3.9 3.15 3.9 0.45L3.9 0.45 3.9-28.65Q1.85-29.4 1.15-30.35L1.15-30.35 1.65-34.5 13.35-34.5 13.85-30.35Q13.05-29.4 11.1-28.65L11.1-28.65 11.05 0Q11.05 5.75 8.83 8.08 6.6 10.4 1.63 10.4-3.35 10.4-6.9 7.8L-6.9 7.8Q-6.9 7.5-6.9 6.73-6.9 5.95-6.58 4.17-6.25 2.4-5.65 1.2L-5.65 1.2-1.15 1.2Q-0.45 2.3-0.15 4.95L-0.15 4.95Q0.1 5 0.6 5ZM28.8-12L28.8-12 26.55-12 26.55-6.1Q30.2-5.3 31.1-4.15L31.1-4.15 30.6 0 17.1 0 16.6-4.15Q17.25-5 19.35-5.8L19.35-5.8 19.35-28.65Q17.3-29.4 16.6-30.35L16.6-30.35 17.1-34.5 30.35-34.5Q37.3-34.4 40.72-31.98 44.15-29.55 44.15-23.35L44.15-23.35Q44.15-12 28.8-12ZM29.55-29.05L29.55-29.05 26.55-29.05 26.55-17.45 29.9-17.45Q33.3-17.45 34.97-18.8 36.65-20.15 36.65-23.48 36.65-26.8 34.82-27.93 33-29.05 29.55-29.05Z" opacity="1" transform="matrix(1,0,0,1,0,0)" fill="#ffffff" class="undefined-text-0" data-fill-palette-color="primary" id="text-0"></path></svg></g></svg></g></svg></g></svg></g></svg></g></svg></g></svg></g><g><path d="M210.447 0c30.402 0 58.24 10.976 79.769 29.183l-11.148 0c-19.26-14.022-42.974-22.294-68.621-22.295-25.647 0-49.361 8.272-68.621 22.295l-11.147 0c21.528-18.206 49.366-29.183 79.768-29.183zM334.047 123.6c0 28.219-9.457 54.23-25.374 75.035v-11.974c11.699-18.185 18.486-39.831 18.486-63.061 0-23.23-6.787-44.876-18.486-63.061v-11.974c15.918 20.805 25.375 46.816 25.374 75.035zM210.447 247.2c-30.402 0-58.24-10.976-79.768-29.183l11.147 0c19.26 14.022 42.974 22.294 68.621 22.295 25.647 0 49.361-8.272 68.621-22.295l11.148 0c-21.528 18.206-49.366 29.183-79.769 29.183z" fill="#ffffff" stroke="transparent" data-fill-palette-color="tertiary"></path></g></svg></g><defs></defs></svg><rect width="395.52" height="247.2" fill="none" stroke="none" visibility="hidden"></rect></g></svg></g></svg>